General
Complete name                    : C:\UPs\Streetdance.3D.2010.BluRay.1080p-Lorinsion\StreetDance 3D.mkv
Format                           : Matroska
File size                        : 3.94 GiB
Duration                         : 1h 38mn
Overall bit rate                 : 5 728 Kbps
Movie name                       : 00000
Encoded date                     : UTC 2010-12-08 01:23:07
Writing application              : mkvmerge v4.3.0 ('Escape from the Island') built on Sep  5 2010 10:30:51
Writing library                  : libebml v1.0.0 + libmatroska v1.0.0

Video
ID                               : 1
Format                           : AVC
Format/Info                      : Advanced Video Codec
Format profile                   : High@L4.0
Format settings, CABAC           : Yes
Format settings, ReFrames        : 3 frames
Codec ID                         : V_MPEG4/ISO/AVC
Duration                         : 1h 38mn
Bit rate mode                    : Variable
Bit rate                         : 4 974 Kbps
Maximum bit rate                 : 25.0 Mbps
Width                            : 1 920 pixels
Height                           : 1 080 pixels
Display aspect ratio             : 16:9
Frame rate                       : 23.976 fps
Color space                      : YUV
Chroma subsampling               : 4:2:0
Bit depth                        : 8 bits
Scan type                        : Progressive
Bits/(Pixel*Frame)               : 0.100
Stream size                      : 3.42 GiB (87%)
Writing library                  : x264 core 105 r1732 2b04482

Audio
ID                               : 2
Format                           : AC-3
Format/Info                      : Audio Coding 3
Mode extension                   : CM (complete main)
Codec ID                         : A_AC3
Duration                         : 1h 38mn
Bit rate mode                    : Constant
Bit rate                         : 640 Kbps
Channel(s)                       : 6 channels
Channel positions                : Front: L C R, Side: L R, LFE
Sampling rate                    : 48.0 KHz
Bit depth                        : 16 bits
Compression mode                 : Lossy
Stream size                      : 451 MiB (11%)
Language                         : English


Screens:
 
http://img202.imageshack.us/i/vlcsnap2011011317h02m57.png/
 
http://img143.imageshack.us/i/vlcsnap2011011317h03m35.png/
 
http://img267.imageshack.us/i/vlcsnap2011011316h47m31.png/
 
http://img69.imageshack.us/i/vlcsnap2011011316h47m44.png/
 
http://img813.imageshack.us/i/vlcsnap2011011316h48m30.png/
 
http://img687.imageshack.us/i/vlcsnap2011011316h56m23.png/